<svg width="159" height="40" viewBox="0 0 159 40" fill="none" xmlns="http://www.w3.org/2000/svg">
<path d="M0 14.6817L9.71269 26.0885L24.3702 0L0 14.6817ZM20.648 3.83907L15.0787 13.76L3.65422 14.0902L20.6485 3.83907H20.648ZM9.49525 23.7082L2.48584 15.4935L14.2905 15.1494L9.49525 23.7082Z" fill="white"/>
<path d="M18.0674 14.0762L3.11084 39.9999L27.6169 25.6345L18.0669 14.0762H18.0674ZM18.2575 16.4566L25.1584 24.8089L13.1768 25.2494L18.2575 16.4566ZM6.85989 36.2162L12.375 26.667L23.881 26.2265L6.85989 36.2162Z" fill="white"/>
<path d="M40.5741 15.6447C40.4175 14.3996 39.4273 13.7763 37.6062 13.7763C35.785 13.7763 34.8738 14.3513 34.8738 15.5009C34.8738 15.9807 35.0669 16.343 35.4546 16.5905C35.8406 16.8394 36.3257 17.0418 36.9084 17.2022C37.4924 17.3625 38.1275 17.5095 38.8125 17.6449C39.4988 17.7803 40.1339 17.9724 40.7166 18.2199C41.3005 18.4674 41.7857 18.8065 42.1716 19.2376C42.5576 19.6688 42.7507 20.2603 42.7507 21.0109C42.7507 22.1774 42.3167 23.0682 41.4505 23.683C40.5825 24.2982 39.4079 24.6055 37.9264 24.6055C36.3491 24.6055 35.0952 24.2061 34.1645 23.4073C33.3133 22.7037 32.8563 21.7864 32.7937 20.6517H34.6382C34.7489 21.7547 35.3642 22.4968 36.4828 22.8792C36.8934 23.0079 37.2996 23.0713 37.7019 23.0713C38.1041 23.0713 38.4773 23.0481 38.8253 22.9994C39.1719 22.9525 39.5098 22.864 39.8415 22.7354C40.5988 22.4329 40.9768 21.9133 40.9768 21.1793C40.9768 20.6847 40.7836 20.3036 40.3977 20.0414C40.0117 19.7773 39.5266 19.5615 38.9426 19.3944C38.3586 19.2256 37.7248 19.0755 37.0385 18.9383C36.3522 18.8029 35.7184 18.6157 35.1344 18.3749C34.5505 18.1359 34.0671 17.8084 33.6794 17.3938C33.2934 16.9779 33.1002 16.4029 33.1002 15.6675C33.1002 14.5828 33.4915 13.7388 34.2717 13.1406C35.052 12.5424 36.2071 12.2417 37.7363 12.2417C39.1865 12.2417 40.3297 12.5942 41.1664 13.2961C41.8594 13.8876 42.262 14.6699 42.3723 15.6443H40.5741V15.6447Z" fill="white"/>
<path d="M46.7958 14.2558C47.5844 12.9137 48.7823 12.2422 50.3909 12.2422C51.1795 12.2422 51.9086 12.4544 52.5786 12.877C53.2486 13.3015 53.773 13.8948 54.151 14.6619C54.6873 13.6558 55.5236 12.9374 56.6589 12.5062C57.1158 12.3306 57.6323 12.2422 58.2079 12.2422C58.7835 12.2422 59.3348 12.3592 59.8628 12.5898C60.3925 12.8221 60.8609 13.1531 61.2702 13.5843C62.1546 14.5435 62.5952 15.7399 62.5952 17.179V24.4135H60.8217V17.2254C60.8217 16.2363 60.546 15.4205 59.9933 14.7821C59.4424 14.1754 58.7394 13.8711 57.8881 13.8711C56.9906 13.8711 56.2416 14.1669 55.6409 14.7584C55.0106 15.3651 54.6957 16.1956 54.6957 17.25V24.4126H52.9222V17.2245C52.9222 16.2354 52.6452 15.4196 52.0939 14.7812C51.5412 14.1745 50.8399 13.8702 49.9887 13.8702C49.0893 13.8702 48.3404 14.166 47.7414 14.7575C47.1111 15.3642 46.7962 16.1947 46.7962 17.2491V24.4117H45.0227V12.4325H46.7962V14.254L46.7958 14.2558Z" fill="white"/>
<path d="M74.7756 22.4964C73.8304 23.9019 72.4181 24.6055 70.5418 24.6055C68.8393 24.6055 67.4517 24.0055 66.379 22.8073C65.3381 21.6256 64.8181 20.1651 64.8181 18.4236C64.8181 16.6821 65.3377 15.2216 66.379 14.0399C67.4513 12.8417 68.8786 12.2417 70.6605 12.2417C72.4424 12.2417 73.8132 12.9538 74.7752 14.3741V12.4338H76.5487V24.413H74.7752V22.4959L74.7756 22.4964ZM70.7782 22.9757C72.0551 22.9757 73.0652 22.5281 73.8057 21.6336C74.5149 20.7879 74.87 19.7166 74.87 18.4232C74.87 17.1298 74.5154 16.0602 73.8057 15.2127C73.0647 14.3187 72.0551 13.8706 70.7782 13.8706C69.5013 13.8706 68.4913 14.3183 67.7044 15.2127C66.9621 16.0602 66.5925 17.1298 66.5925 18.4232C66.5925 19.7166 66.9621 20.7879 67.7044 21.6336C68.4913 22.5276 69.5177 22.9757 70.7782 22.9757Z" fill="white"/>
<path d="M85.868 12.2417V14.0399H85.655C84.3781 14.0399 83.3368 14.5582 82.5336 15.596C81.7763 16.587 81.3983 17.7687 81.3983 19.1425V24.4134H79.6248V12.4343H81.3983V15.3807C81.7763 14.1355 82.5962 13.2165 83.8581 12.6264C84.3777 12.3708 85.008 12.2421 85.7507 12.2421H85.868V12.2417Z" fill="white"/>
<path d="M89.0604 24.4132V14.0151H86.6482V12.434H89.0604V8.14551H90.8339V12.434H93.5544V14.0151H90.8339V24.4132H89.0604Z" fill="white"/>
<path d="M97.6709 10.9852C97.3705 11.2475 97.1694 11.5401 97.067 11.8591C96.9647 12.1781 96.9136 12.5176 96.9136 12.8768C96.9136 13.2361 97.067 13.5689 97.374 13.8714C97.6828 14.1756 98.0885 14.4312 98.5931 14.6385C99.0964 14.8458 99.672 15.0294 100.319 15.1898C100.966 15.3484 101.624 15.5123 102.294 15.6812C102.964 15.8483 103.622 16.0404 104.269 16.2562C104.916 16.472 105.492 16.7459 105.996 17.0818C107.115 17.8002 107.676 18.7831 107.676 20.03C107.676 21.5142 107.126 22.649 106.031 23.4308C104.936 24.2145 103.418 24.6058 101.479 24.6058C99.2869 24.6058 97.6153 24.143 96.4637 23.2155C95.4391 22.385 94.8569 21.2033 94.7148 19.6691H96.5594C96.622 20.7569 97.1416 21.5861 98.1203 22.1607C98.9716 22.657 100.098 22.9045 101.502 22.9045C104.436 22.9045 105.901 21.9704 105.901 20.102C105.901 19.4618 105.637 18.9587 105.109 18.591C104.581 18.2251 103.918 17.9209 103.122 17.6818C102.325 17.441 101.466 17.2172 100.544 17.0099C99.6212 16.8026 98.7616 16.5354 97.9664 16.2075C97.1694 15.88 96.5078 15.4489 95.9785 14.9141C95.4505 14.3793 95.1863 13.6556 95.1863 12.7451C95.1863 11.4517 95.6746 10.3968 96.6529 9.58328C97.6312 8.76927 99.1048 8.36182 101.076 8.36182C103.048 8.36182 104.6 8.82467 105.688 9.75037C106.683 10.5657 107.211 11.6121 107.273 12.8889H105.452C105.293 11.5803 104.458 10.7096 102.944 10.2784C102.407 10.1181 101.743 10.0376 100.946 10.0376C100.149 10.0376 99.4792 10.131 98.9345 10.3133C98.3916 10.4969 97.9695 10.7212 97.6709 10.9852Z" fill="white"/>
<path d="M115.315 22.9762C116.907 22.9762 118.05 22.3042 118.745 20.9639H120.683C120.274 22.05 119.623 22.9275 118.733 23.5994C117.842 24.2696 116.694 24.6055 115.292 24.6055C113.51 24.6055 112.058 24.0055 110.939 22.8073C109.85 21.6426 109.307 20.1803 109.307 18.4236C109.307 16.6669 109.827 15.1899 110.868 14.0399C111.972 12.8417 113.408 12.2417 115.173 12.2417C116.938 12.2417 118.373 12.8417 119.477 14.0399C120.518 15.1899 121.038 16.6504 121.038 18.4236V19.142H111.129C111.254 20.2451 111.688 21.1543 112.429 21.8727C113.187 22.608 114.149 22.9757 115.315 22.9757V22.9762ZM115.173 13.8715C114.085 13.8715 113.17 14.216 112.429 14.9026C111.734 15.5576 111.308 16.4118 111.152 17.4662H119.193C119.035 16.4118 118.609 15.5576 117.917 14.9026C117.176 14.216 116.26 13.8715 115.173 13.8715Z" fill="white"/>
<path d="M124.988 12.4338V14.3022C125.414 13.7272 125.935 13.2411 126.549 12.8417C127.164 12.4423 127.865 12.2417 128.654 12.2417C129.443 12.2417 130.121 12.3538 130.688 12.5777C131.256 12.8015 131.753 13.1375 132.178 13.5838C133.156 14.5582 133.645 15.8449 133.645 17.4407V24.413H131.871V17.489C131.871 16.3859 131.564 15.5085 130.949 14.8535C130.334 14.1985 129.538 13.8706 128.56 13.8706C127.582 13.8706 126.724 14.2066 126.029 14.8767C125.335 15.5634 124.988 16.4427 124.988 17.5122V24.4125H123.215V12.4334H124.988L124.988 12.4338Z" fill="white"/>
<path d="M143.556 15.6447C143.397 14.3996 142.409 13.7763 140.588 13.7763C138.767 13.7763 137.855 14.3513 137.855 15.5009C137.855 15.9807 138.048 16.343 138.434 16.5905C138.82 16.8394 139.305 17.0418 139.889 17.2022C140.472 17.3625 141.107 17.5095 141.794 17.6449C142.48 17.7803 143.114 17.9724 143.698 18.2199C144.28 18.4674 144.765 18.8065 145.153 19.2376C145.539 19.6688 145.732 20.2603 145.732 21.0109C145.732 22.1774 145.298 23.0682 144.43 23.683C143.564 24.2982 142.388 24.6055 140.906 24.6055C139.329 24.6055 138.077 24.2061 137.146 23.4073C136.295 22.7037 135.836 21.7864 135.773 20.6517H137.62C137.729 21.7547 138.344 22.4968 139.464 22.8792C139.874 23.0079 140.279 23.0713 140.682 23.0713C141.085 23.0713 141.459 23.0481 141.805 22.9994C142.152 22.9525 142.492 22.864 142.822 22.7354C143.579 22.4329 143.958 21.9133 143.958 21.1793C143.958 20.6847 143.764 20.3036 143.377 20.0414C142.991 19.7773 142.506 19.5615 141.924 19.3944C141.34 19.2256 140.705 19.0755 140.02 18.9383C139.333 18.8029 138.698 18.6157 138.115 18.3749C137.532 18.1359 137.046 17.8084 136.66 17.3938C136.274 16.9779 136.081 16.4029 136.081 15.6675C136.081 14.5828 136.471 13.7388 137.251 13.1406C138.031 12.5424 139.186 12.2417 140.717 12.2417C142.168 12.2417 143.311 12.5942 144.146 13.2961C144.84 13.8876 145.241 14.6699 145.352 15.6443H143.555L143.556 15.6447Z" fill="white"/>
<path d="M153.277 22.9762C154.869 22.9762 156.012 22.3042 156.707 20.9639H158.645C158.236 22.05 157.585 22.9275 156.696 23.5994C155.805 24.2696 154.656 24.6055 153.254 24.6055C151.472 24.6055 150.02 24.0055 148.901 22.8073C147.812 21.6426 147.27 20.1803 147.27 18.4236C147.27 16.6669 147.789 15.1899 148.83 14.0399C149.934 12.8417 151.37 12.2417 153.135 12.2417C154.9 12.2417 156.336 12.8417 157.439 14.0399C158.48 15.1899 159 16.6504 159 18.4236V19.142H149.091C149.216 20.2451 149.65 21.1543 150.391 21.8727C151.149 22.608 152.111 22.9757 153.277 22.9757V22.9762ZM153.135 13.8715C152.048 13.8715 151.132 14.216 150.391 14.9026C149.696 15.5576 149.271 16.4118 149.114 17.4662H157.156C156.997 16.4118 156.572 15.5576 155.879 14.9026C155.138 14.216 154.222 13.8715 153.135 13.8715Z" fill="white"/>
</svg>
